<svg width="50" height="51" viewBox="0 0 50 51" fill="none" xmlns="http://www.w3.org/2000/svg">
<circle cx="25" cy="25.7188" r="25" fill="#00CC61"/>
<g clip-path="url(#clip0_228_494)">
<mask id="mask0_228_494" style="mask-type:luminance" maskUnits="userSpaceOnUse" x="13" y="13" width="24" height="25">
<path d="M13.1562 13.877H36.8405V37.5612H13.1562V13.877Z" fill="white"/>
</mask>
<g mask="url(#mask0_228_494)">
<path fill-rule="evenodd" clip-rule="evenodd" d="M36.5514 19.0996C36.9368 19.485 36.9368 20.1098 36.5514 20.4952L27.1764 29.8702C26.7911 30.2555 26.1662 30.2555 25.7808 29.8702L21.5444 25.6338L14.8409 32.3373C14.4555 32.7227 13.8307 32.7227 13.4453 32.3373C13.0599 31.9519 13.0599 31.3271 13.4453 30.9417L20.8466 23.5404C21.232 23.155 21.8568 23.155 22.2422 23.5404L26.4786 27.7768L35.1558 19.0996C35.5412 18.7142 36.1661 18.7142 36.5514 19.0996Z" fill="white"/>
<path fill-rule="evenodd" clip-rule="evenodd" d="M28.9453 19.7974C28.9453 19.2524 29.3871 18.8105 29.9322 18.8105H35.8532C36.3982 18.8105 36.84 19.2524 36.84 19.7974V25.7184C36.84 26.2635 36.3982 26.7053 35.8532 26.7053C35.3082 26.7053 34.8664 26.2635 34.8664 25.7184V20.7842H29.9322C29.3871 20.7842 28.9453 20.3424 28.9453 19.7974Z" fill="white"/>
</g>
</g>
<defs>
<clipPath id="clip0_228_494">
<rect width="23.6842" height="23.6842" fill="white" transform="translate(13.1562 13.877)"/>
</clipPath>
</defs>
</svg>
